<svg version="1.2" xmlns="http://www.w3.org/2000/svg" viewBox="0 0 284 101" width="284" height="101"><style>.a{fill:#fff}</style><path class="a" d="m36.1 29.5v15.9l10.3-15.9h25.7l-18 21.7 17 20.5h-24.7l-10.3-13.8v13.7h-21.6v-42.1z"/><path class="a" d="m93.6 29.5v27.1h18.4v15h-40.2v-42.1z"/><path class="a" d="m162.4 29.5v13.9h-26v3.6h25.8v10.2h-25.8v3.4h26v11.2h-47.4v-42.3z"/><path class="a" d="m183 29.5l6.6 14.5 6.8-14.5h21.3l-17 29.9v12.3h-22v-12.3l-16.9-29.9z"/><path class="a" d="m238.9 29.5l12.4 17.8v-17.8h20.1v42.2h-18.8l-15-19.2v19.2h-20.4v-42.2z"/><path class="a" d="m278-23h7.3l0.4 146.9h-7.3zm-278 27.6v-5l288.1-0.3v5zm-2.2 96.8v-5h288.7v5zm1.7-106.8h5l0.2 114.8h-5z"/></svg>